<?xml version="1.0" encoding="UTF-8"?>
<svg version="1.1" xmlns="http://www.w3.org/2000/svg" width="240" height="339">
<path d="M0 0 C79.2 0 158.4 0 240 0 C240 111.87 240 223.74 240 339 C160.8 339 81.6 339 0 339 C0 227.13 0 115.26 0 0 Z " fill="#EEEDEB" transform="translate(0,0)"/>
<path d="M0 0 C79.2 0 158.4 0 240 0 C240 111.87 240 223.74 240 339 C160.8 339 81.6 339 0 339 C0 227.13 0 115.26 0 0 Z M111.49609375 13.640625 C110.55647293 14.05738998 110.55647293 14.05738998 109.59786987 14.48257446 C108.24741408 15.08279315 106.89881322 15.68719936 105.5519104 16.29534912 C103.40104768 17.26645813 101.24564366 18.22673527 99.08862305 19.18408203 C96.8688693 20.16927821 94.64936843 21.15498906 92.43128967 22.14395142 C85.75306535 25.12051346 79.03901199 28.00929645 72.3125 30.875 C70.04802196 31.84338735 67.78370391 32.81214886 65.51953125 33.78125 C63.74376709 34.54115234 63.74376709 34.54115234 61.93212891 35.31640625 C54.93853252 38.31042254 47.94646962 41.30791924 40.95932007 44.31695557 C39.34514873 45.01140157 37.73043961 45.70459917 36.11514282 46.39642334 C31.72046247 48.27905974 27.33505513 50.18004611 22.96728516 52.12438965 C21.67846431 52.69802529 20.38782666 53.26760025 19.09521484 53.8326416 C17.37739933 54.58969393 15.67257139 55.37601996 13.96875 56.1640625 C13.02451172 56.59412598 12.08027344 57.02418945 11.10742188 57.46728516 C8.74881097 58.85854103 8.74881097 58.85854103 8.18945312 61.67724609 C8.12693359 62.44375488 8.06441406 63.21026367 8 64 C11.85643027 67.36172976 16.40945027 69.05307397 21.0703125 71.01171875 C22.38647049 71.57135063 22.38647049 71.57135063 23.72921753 72.14228821 C25.57893869 72.92733483 27.42980743 73.7096823 29.28173828 74.48950195 C32.12440622 75.68724981 34.96280058 76.8947097 37.80078125 78.10351562 C39.59871351 78.86516153 41.39688257 79.62624873 43.1953125 80.38671875 C44.04739288 80.74916183 44.89947327 81.11160492 45.77737427 81.48503113 C46.56514252 81.81570084 47.35291077 82.14637054 48.16455078 82.48706055 C48.85864044 82.78001511 49.5527301 83.07296967 50.26785278 83.37480164 C52.00661477 84.1131669 52.00661477 84.1131669 54 84 C55.25568692 108.91829031 55.25568692 108.91829031 50.28515625 115.3359375 C47.61263522 118.09500032 44.63090503 120.43810292 41.56054688 122.73828125 C37.83650002 125.74921275 35.48302026 129.97059243 33 134 C32.41863281 134.89847656 31.83726563 135.79695313 31.23828125 136.72265625 C20.98041298 153.25540272 16.40451582 171.41179185 16.5625 190.8125 C16.57007324 192.12549072 16.57764648 193.43848145 16.58544922 194.79125977 C16.75390369 204.74052489 17.78555224 213.59698925 21 223 C21.20898926 223.62825684 21.41797852 224.25651367 21.63330078 224.90380859 C26.95063379 240.56903011 35.43576209 253.29706058 47 265 C47.96486328 266.07314453 47.96486328 266.07314453 48.94921875 267.16796875 C59.92252786 279.09340881 76.23224362 288.07456142 91.9375 291.625 C97.05902205 293.14778265 99.13265841 294.76651734 101.9375 299.3125 C102.88822681 301.10306972 103.83648337 302.89509453 104.76123047 304.69921875 C107.45208451 309.69697367 110.52474367 314.48081426 113.5 319.3125 C114.74089384 321.34946265 115.98057729 323.38716341 117.21875 325.42578125 C117.75435547 326.30661377 118.28996094 327.18744629 118.84179688 328.0949707 C119.22400391 328.72363037 119.60621094 329.35229004 120 330 C123.09943358 327.12551169 125.20963594 324.26509211 127.3125 320.60546875 C127.91320312 319.56712891 128.51390625 318.52878906 129.1328125 317.45898438 C129.74898438 316.37939453 130.36515625 315.29980469 131 314.1875 C131.61617188 313.11951172 132.23234375 312.05152344 132.8671875 310.95117188 C134.05619501 308.88826937 135.24126908 306.82309334 136.421875 304.75537109 C137.38095012 303.0808473 138.34766629 301.41062894 139.328125 299.74853516 C141.34433902 296.58937766 141.34433902 296.58937766 142 293 C143.01835937 292.87882812 144.03671875 292.75765625 145.0859375 292.6328125 C169.10442509 288.74958397 191.70130757 271.4342892 205.875 252.0625 C221.42952619 228.0236868 228.92192711 200.60823876 223.69140625 172.078125 C221.47531506 162.21213709 218.56266338 153.0319389 214 144 C213.55914062 143.09636719 213.11828125 142.19273437 212.6640625 141.26171875 C208.52979714 133.18733862 203.36109225 125.2060226 195.9765625 119.77734375 C191.35913017 116.22227696 188.4455785 113.79910062 187.51855469 107.97558594 C187.04240517 100.28979352 187.44033261 92.67140055 188 85 C193.94 82.36 199.88 79.72 206 77 C205.96519531 80.00867188 205.93039063 83.01734375 205.89453125 86.1171875 C205.87115217 89.02293956 205.8529262 91.92868125 205.83520508 94.83447266 C205.82009474 96.85795766 205.79960563 98.8814098 205.77368164 100.90478516 C205.73739672 103.80900165 205.72029645 106.71278615 205.70703125 109.6171875 C205.69154739 110.52556366 205.67606354 111.43393982 205.66011047 112.36984253 C205.65988388 113.21056305 205.65965729 114.05128357 205.65942383 114.91748047 C205.64943108 116.03000687 205.64943108 116.03000687 205.63923645 117.16500854 C205.75828842 117.77055573 205.87734039 118.37610291 206 119 C209.68717438 121.45811625 211.64345704 121.31118164 216 121 C216.99 120.34 217.98 119.68 219 119 C219.43731398 116.86420017 219.43731398 116.86420017 219.34057617 114.36669922 C219.34023628 112.92543167 219.34023628 112.92543167 219.33988953 111.45504761 C219.32440567 110.41542877 219.30892181 109.37580994 219.29296875 108.3046875 C219.28872391 107.24210724 219.28447906 106.17952698 219.28010559 105.08474731 C219.26327389 101.68124354 219.22561303 98.27832567 219.1875 94.875 C219.17245899 92.57162312 219.15876958 90.26823698 219.14648438 87.96484375 C219.11335574 82.30969495 219.06311197 76.65488932 219 71 C219.61415771 70.79866455 220.22831543 70.5973291 220.86108398 70.38989258 C221.66876221 70.12329834 222.47644043 69.8567041 223.30859375 69.58203125 C224.10837646 69.3188208 224.90815918 69.05561035 225.73217773 68.78442383 C228.53470699 67.8150486 230.74795967 66.96145448 233 65 C233.16155791 61.92957284 233.16155791 61.92957284 233 59 C220.89773821 52.64713428 208.38683991 47.33777338 195.8125 42 C193.63368766 41.07139228 191.45505996 40.14235125 189.27661133 39.21289062 C184.91469555 37.35229172 180.55192466 35.49372103 176.18847656 33.63671875 C170.59828468 31.25651564 165.01265085 28.86585329 159.4296875 26.46875 C158.62909409 26.12505371 157.82850067 25.78135742 157.00364685 25.42724609 C154.02409251 24.14789861 151.04468025 22.86822055 148.06533813 21.58837891 C144.86622269 20.21460444 141.66585729 18.8441161 138.46240234 17.48046875 C136.16023901 16.49609994 133.86358556 15.49874069 131.57275391 14.48828125 C129.98406494 13.79798828 129.98406494 13.79798828 128.36328125 13.09375 C126.98523315 12.48563477 126.98523315 12.48563477 125.5793457 11.86523438 C120.10170259 10.02777416 116.66426192 11.32020801 111.49609375 13.640625 Z " fill="#EEEDEB" transform="translate(0,0)"/>
<path d="M0 0 C2.23758207 1.00936389 4.4758885 2.01712324 6.71484375 3.0234375 C8.44130127 3.80315918 8.44130127 3.80315918 10.20263672 4.59863281 C15.79177274 7.09678945 21.42543936 9.48741813 27.0625 11.875 C28.18100342 12.3501001 29.29950684 12.8252002 30.4519043 13.31469727 C33.86315896 14.76332565 37.27520539 16.21007311 40.6875 17.65625 C54.3809334 23.45971341 68.06368546 29.28451643 81.6875 35.25 C82.75049316 35.71345825 83.81348633 36.1769165 84.90869141 36.65441895 C85.88757324 37.08492554 86.86645508 37.51543213 87.875 37.95898438 C88.73480469 38.33615601 89.59460938 38.71332764 90.48046875 39.10192871 C92.6875 40.15625 92.6875 40.15625 95.6875 42.15625 C95.875 45.28125 95.875 45.28125 95.6875 48.15625 C93.73164675 49.16109204 91.77273763 50.15998805 89.8125 51.15625 C88.72195312 51.713125 87.63140625 52.27 86.5078125 52.84375 C83.6875 54.15625 83.6875 54.15625 81.6875 54.15625 C81.69749275 55.05160965 81.69749275 55.05160965 81.70768738 55.96505737 C81.77390839 62.16138335 81.81924527 68.35760931 81.85229492 74.55419922 C81.86740853 76.86869385 81.88789996 79.18315974 81.91381836 81.49755859 C81.95008841 84.81875696 81.96720044 88.13957768 81.98046875 91.4609375 C81.99595261 92.50055634 82.01143646 93.54017517 82.02738953 94.61129761 C82.02772942 96.05256516 82.02772942 96.05256516 82.02807617 97.52294922 C82.03806892 98.79535965 82.03806892 98.79535965 82.04826355 100.09347534 C81.92921158 100.77419098 81.81015961 101.45490662 81.6875 102.15625 C78.00032562 104.61436625 76.04404296 104.46743164 71.6875 104.15625 C70.6975 103.49625 69.7075 102.83625 68.6875 102.15625 C68.32673645 100.32125854 68.32673645 100.32125854 68.34692383 98.07373047 C68.34715042 97.23300995 68.34737701 96.39228943 68.34761047 95.52609253 C68.36309433 94.61771637 68.37857819 93.70934021 68.39453125 92.7734375 C68.39877609 91.84403351 68.40302094 90.91462952 68.40739441 89.95706177 C68.42421988 86.98149944 68.46187897 84.00660844 68.5 81.03125 C68.51504184 79.01693685 68.52873112 77.00261311 68.54101562 74.98828125 C68.57158742 70.04380261 68.63030107 65.10077984 68.6875 60.15625 C62.7475 62.79625 56.8075 65.43625 50.6875 68.15625 C48.47415693 84.0826582 48.47415693 84.0826582 53.48828125 98.54296875 C56.40109518 101.51791296 59.64386772 104.08220461 62.91796875 106.64697266 C78.57024587 119.99719026 85.93704592 145.44237899 87.6875 165.15625 C89.42596122 192.89784089 81.61617576 219.56923075 63.6875 241.15625 C49.29204019 257.37667402 30.47605243 271.79853951 8.6875 276.15625 C7.3675 276.15625 6.0475 276.15625 4.6875 276.15625 C4.48640625 276.92324219 4.2853125 277.69023437 4.078125 278.48046875 C2.11533796 283.66862212 -0.71015871 288.22441947 -3.5625 292.96875 C-4.12324219 293.91556641 -4.68398437 294.86238281 -5.26171875 295.83789062 C-8.7743497 301.73148505 -12.44499983 307.48936112 -16.3125 313.15625 C-19.25097838 310.55511278 -20.99484581 307.54110775 -22.96484375 304.16796875 C-23.30624893 303.58715042 -23.64765411 303.00633209 -23.99940491 302.40791321 C-25.08727053 300.55569213 -26.16895803 298.69996052 -27.25 296.84375 C-28.32843346 294.99883863 -29.40820358 293.15473173 -30.48988342 291.3117218 C-31.47502943 289.63215878 -32.45625369 287.95029727 -33.43725586 286.26831055 C-36.96315208 279.41548092 -36.96315208 279.41548092 -43.11328125 275.5390625 C-43.83563965 275.32918701 -44.55799805 275.11931152 -45.30224609 274.90307617 C-46.45200928 274.59527222 -46.45200928 274.59527222 -47.625 274.28125 C-73.20906926 266.56053724 -95.37254918 248.60289753 -108.3125 225.15625 C-113.49434544 215.25229813 -116.84710517 205.03844974 -119.3125 194.15625 C-119.5751062 193.01917603 -119.5751062 193.01917603 -119.84301758 191.85913086 C-122.58584644 176.06825287 -121.48167464 157.26244049 -116.3125 142.15625 C-115.99104004 141.1979126 -115.99104004 141.1979126 -115.66308594 140.22021484 C-111.12325764 126.96748464 -103.41576206 110.55099432 -91.62109375 102.265625 C-87.11883881 98.90974792 -84.74444553 96.63512213 -83.77587891 91.07666016 C-83.06208185 83.11339596 -83.08219907 75.14281741 -83.3125 67.15625 C-83.86398209 66.98033829 -84.41546417 66.80442657 -84.98365784 66.6231842 C-90.36633934 64.87262257 -95.57862403 62.88648335 -100.77734375 60.65234375 C-101.53672745 60.32839127 -102.29611115 60.00443878 -103.07850647 59.67066956 C-104.66484892 58.99262744 -106.25041018 58.31275489 -107.83520508 57.63110352 C-110.26575776 56.58698074 -112.70007525 55.55200996 -115.13476562 54.51757812 C-116.68252553 53.85471245 -118.23005998 53.19132008 -119.77734375 52.52734375 C-120.50436996 52.21897079 -121.23139618 51.91059784 -121.98045349 51.59288025 C-124.84633339 50.35320738 -127.08348599 49.38526401 -129.3125 47.15625 C-129.37768555 44.77319336 -129.37768555 44.77319336 -128.3125 42.15625 C-125.93796941 40.59374101 -123.83295502 39.44242167 -121.26953125 38.28515625 C-120.55102493 37.94440567 -119.83251862 37.60365509 -119.09223938 37.25257874 C-116.84258068 36.19617719 -114.58114222 35.171177 -112.3125 34.15625 C-111.63491638 33.85193054 -110.95733276 33.54761108 -110.25921631 33.23406982 C-105.53169599 31.1262313 -100.76923417 29.10496182 -96 27.09375 C-94.48642439 26.45081614 -92.97308344 25.80732958 -91.45996094 25.16333008 C-88.32301037 23.82874212 -85.18508213 22.49649461 -82.04638672 21.16601562 C-75.11915544 18.22763318 -68.20349619 15.26230263 -61.28790283 12.29666138 C-59.07890544 11.35077476 -56.86849852 10.40825581 -54.65771484 9.46655273 C-48.16719193 6.69793963 -41.69967432 3.89905601 -35.28515625 0.95703125 C-34.23166992 0.47919189 -33.17818359 0.00135254 -32.09277344 -0.4909668 C-30.19138884 -1.35766407 -28.29671721 -2.23933774 -26.41113281 -3.13989258 C-25.16541504 -3.7048645 -25.16541504 -3.7048645 -23.89453125 -4.28125 C-23.19561768 -4.60996094 -22.4967041 -4.93867188 -21.77661133 -5.27734375 C-13.91233537 -7.08504416 -6.95592226 -3.21424639 0 0 Z M-86.9375 119.21875 C-101.39285583 137.55610951 -107.45724856 161.21736251 -105.09423828 184.28710938 C-102.51719623 203.50849158 -94.25008926 220.77362459 -81.3125 235.15625 C-80.68730469 235.86394531 -80.06210938 236.57164062 -79.41796875 237.30078125 C-64.26337722 253.47631368 -42.4013102 262.3963717 -20.5 263.31640625 C5.99703993 264.03188136 28.1688118 254.10397484 47.25 236.03125 C64.68610273 218.22521581 72.02316772 194.88851772 72.06811523 170.33935547 C71.74520839 149.65060005 63.63206307 130.43438874 49.6875 115.15625 C48.89666016 114.24552734 48.89666016 114.24552734 48.08984375 113.31640625 C34.92570917 99.05256509 11.43415101 87.38849313 -8.0859375 86.21875 C-8.82070312 86.198125 -9.55546875 86.1775 -10.3125 86.15625 C-11.21226563 86.094375 -12.11203125 86.0325 -13.0390625 85.96875 C-41.64424652 84.810059 -68.31979257 98.00027254 -86.9375 119.21875 Z " fill="#1B2F47" transform="translate(137.3125,16.84375)"/>
<path d="M0 0 C0.66 0 1.32 0 2 0 C4.89022924 8.55167827 7.12125965 17.23300081 9.25 26 C9.52021973 27.09820068 9.79043945 28.19640137 10.06884766 29.32788086 C10.44468994 30.89807983 10.44468994 30.89807983 10.828125 32.5 C11.0540332 33.4384375 11.27994141 34.376875 11.51269531 35.34375 C12.00610769 38.03329242 12.30811209 40.27900647 12 43 C10.71484375 44.57739258 10.71484375 44.57739258 8.9375 45.89453125 C8.30585937 46.37470703 7.67421875 46.85488281 7.0234375 47.34960938 C6.35570313 47.83236328 5.68796875 48.31511719 5 48.8125 C4.33226563 49.31458984 3.66453125 49.81667969 2.9765625 50.33398438 C1.32827245 51.57020191 -0.3345376 52.78701654 -2 54 C10.20567356 54 26.32632276 40.80272491 36.52539062 34.41943359 C39.23959296 32.72721552 41.96320372 31.05090618 44.6875 29.375 C45.54980225 28.82932373 46.41210449 28.28364746 47.30053711 27.72143555 C48.11272705 27.22297119 48.92491699 26.72450684 49.76171875 26.2109375 C50.843927 25.53490479 50.843927 25.53490479 51.94799805 24.84521484 C54.41103818 23.83069433 55.54154665 24.09576515 58 25 C53.45271623 34.60295951 48.40446414 43.76291076 42.9375 52.875 C33.33499633 67.98275461 33.33499633 67.98275461 29 85 C29.55429688 84.21753906 30.10859375 83.43507813 30.6796875 82.62890625 C31.40414062 81.61699219 32.12859375 80.60507813 32.875 79.5625 C33.59429687 78.55316406 34.31359375 77.54382813 35.0546875 76.50390625 C37 74 37 74 39 73 C41.84387978 73.4425656 44.62348469 73.95706173 47.4375 74.546875 C48.27337646 74.71874329 49.10925293 74.89061157 49.97045898 75.06768799 C51.73983669 75.4341406 53.50845837 75.80425963 55.27636719 76.17773438 C57.9862424 76.74710938 60.69975252 77.29596185 63.4140625 77.84375 C65.13046951 78.20187553 66.84662472 78.56121042 68.5625 78.921875 C69.37710693 79.08451843 70.19171387 79.24716187 71.03100586 79.41473389 C76.77106246 80.65659369 76.77106246 80.65659369 79 84 C73.66222118 86.12340391 68.55694781 87.68092922 62.921875 88.75390625 C62.18801575 88.90029037 61.45415649 89.0466745 60.69805908 89.19749451 C58.38324666 89.65888189 56.06688517 90.11164536 53.75 90.5625 C51.41891676 91.01729261 49.08835159 91.47415848 46.75909424 91.93821716 C45.31775511 92.2253417 43.87536066 92.50723384 42.43182373 92.78309631 C37.47625255 93.76872302 37.47625255 93.76872302 33 96 C31.39010447 98.67027761 31.39010447 98.67027761 31 102 C31.82843248 104.65330123 32.65509817 106.79981419 33.875 109.25 C37 115.85480349 37 115.85480349 37 118 C33.18366038 117.41496398 30.41165523 116.26915098 27.0625 114.375 C23.74832345 112.65873 22.36102219 111.98687192 18.5625 112.125 C17.716875 112.41375 16.87125 112.7025 16 113 C14.515 113.495 14.515 113.495 13 114 C10.33488796 126.92356006 7.91137818 139.87688174 5.66333008 152.87988281 C5.46118896 154.03584961 5.25904785 155.19181641 5.05078125 156.3828125 C4.87200439 157.41809082 4.69322754 158.45336914 4.5090332 159.52001953 C4 162 4 162 3 164 C1.12011719 163.54370117 1.12011719 163.54370117 -1 162 C-1.85763563 159.0377968 -2.44598885 156.32796198 -2.921875 153.30078125 C-3.07158752 152.43237106 -3.22130005 151.56396088 -3.37554932 150.66923523 C-3.68947498 148.82881661 -3.99489573 146.98693022 -4.29248047 145.14379883 C-4.74588884 142.3379414 -5.22397467 139.53721746 -5.70703125 136.73632812 C-6.00927866 134.94555934 -6.3101054 133.15455008 -6.609375 131.36328125 C-6.74994324 130.53073318 -6.89051147 129.69818512 -7.03533936 128.84040833 C-7.78550962 124.15991944 -8.14133908 119.74002036 -8 115 C-10.42213207 116.47342589 -12.84413156 117.94706833 -15.26586914 119.42114258 C-17.35025371 120.68912273 -19.43538631 121.95587398 -21.52124023 123.22143555 C-26.47606059 126.23062793 -31.42044474 129.25193589 -36.32421875 132.34375 C-37.12875488 132.84737061 -37.93329102 133.35099121 -38.76220703 133.86987305 C-40.25911245 134.80865612 -41.7512732 135.7550619 -43.23779297 136.71020508 C-47.16945866 139.1645659 -50.27163568 140.6090432 -55 141 C-54.4427969 136.76222136 -53.45634174 133.383712 -51.59375 129.54296875 C-51.10100586 128.52001709 -50.60826172 127.49706543 -50.10058594 126.44311523 C-49.57239258 125.36876221 -49.04419922 124.29440918 -48.5 123.1875 C-47.96407227 122.08414307 -47.42814453 120.98078613 -46.87597656 119.84399414 C-42.4507967 110.78764373 -37.8212497 101.85113265 -33 93 C-33.88816406 92.90203125 -34.77632812 92.8040625 -35.69140625 92.703125 C-44.18670056 91.70872123 -52.62702445 90.47909326 -61.0625 89.0625 C-62.03711182 88.90491211 -63.01172363 88.74732422 -64.01586914 88.58496094 C-69.42689998 87.65381019 -74.05832713 86.40572424 -79 84 C-78.67 83.01 -78.34 82.02 -78 81 C-70.35024137 77.70505937 -61.3221294 76.76857852 -53.14526367 75.21020508 C-51.0402955 74.80826004 -48.93712809 74.39770157 -46.83398438 73.98632812 C-45.48447292 73.72605428 -44.13486686 73.46627037 -42.78515625 73.20703125 C-41.57738525 72.9747583 -40.36961426 72.74248535 -39.12524414 72.50317383 C-36 72 -36 72 -32 72 C-30.17783798 67.49818796 -29.62186108 64.68567233 -31 60 C-32.23608537 57.59695246 -33.55053618 55.26992841 -34.94140625 52.953125 C-36 51 -36 51 -36 49 C-32.13524923 49.39436232 -29.11823733 49.94625576 -25.5625 51.5625 C-21.11116872 53.35865122 -18.76274468 53.6145477 -14 53 C-9.51000649 49.43056128 -8.23750159 46.58671279 -7.26953125 41.00390625 C-7.08749397 39.99891335 -7.08749397 39.99891335 -6.90177917 38.97361755 C-6.52006572 36.83936785 -6.16614549 34.70155898 -5.8125 32.5625 C-5.5649164 31.16179619 -5.31558066 29.7614009 -5.06445312 28.36132812 C-3.67099964 20.48908045 -2.48196182 12.60175399 -1.4362793 4.67553711 C-1 2 -1 2 0 0 Z " fill="#1B2E47" transform="translate(119,109)"/>
<path d="M0 0 C4.03375612 2.50186532 7.05857569 5.43095948 9.5 9.5 C10.65273594 15.26367972 10.4495285 19.5406249 7.25390625 24.484375 C5.08833163 27.10195429 3.24124212 28.02151181 0 29 C-5.17872148 29.38745909 -8.89902829 28.50241219 -12.9375 25.1875 C-16.09889765 22.28020996 -17.80528101 19.6968369 -18.30078125 15.37890625 C-18.34110926 5.68674125 -18.34110926 5.68674125 -15 2 C-10.55204726 -2.0435934 -5.48279148 -1.6473334 0 0 Z " fill="#F1F0EE" transform="translate(124,176)"/>
<path d="M0 0 C3.68067472 1.15873093 5.16802599 1.92180622 7.375 5.0625 C8.53211808 8.68813666 8.7101709 10.32512402 7.125 13.8125 C5.375 16.0625 5.375 16.0625 2.375 18.0625 C-3.77515974 18.73342652 -3.77515974 18.73342652 -7 16.1875 C-9.8959923 12.40043314 -10.19185059 9.84024071 -9.625 5.0625 C-6.48302168 1.38408636 -4.88568266 0.08423591 0 0 Z " fill="#EFEEEC" transform="translate(121.625,55.9375)"/>
<path d="M0 0 C-1.28680869 2.6274838 -2.57917678 5.25196683 -3.875 7.875 C-4.23980469 8.62136719 -4.60460937 9.36773437 -4.98046875 10.13671875 C-5.33496094 10.85214844 -5.68945312 11.56757813 -6.0546875 12.3046875 C-6.37937012 12.96452637 -6.70405273 13.62436523 -7.03857422 14.30419922 C-8 16 -8 16 -10 18 C-9.938125 16.906875 -9.87625 15.81375 -9.8125 14.6875 C-9.66396033 11.10638512 -9.66396033 11.10638512 -11.375 9.0625 C-12.95540186 7.81758355 -12.95540186 7.81758355 -15 8 C-13.75135723 4.25407169 -12.51177066 3.75527015 -9.1875 1.75 C-8.31480469 1.20859375 -7.44210938 0.6671875 -6.54296875 0.109375 C-3.66111819 -1.14783784 -2.88779707 -0.89303047 0 0 Z " fill="#172942" transform="translate(177,134)"/>
<path d="M0 0 C1.8709949 2.80649235 3.23017952 5.49960473 4.625 8.5625 C5.29402344 10.01849609 5.29402344 10.01849609 5.9765625 11.50390625 C7 14 7 14 7 16 C3.2397015 15.41892368 0.46964968 14.34800504 -2.8125 12.4375 C-3.60269531 11.98246094 -4.39289063 11.52742187 -5.20703125 11.05859375 C-5.79871094 10.70925781 -6.39039063 10.35992187 -7 10 C-4 9 -4 9 -1 10 C1.56687367 6.1496895 0.83288724 4.41430237 0 0 Z " fill="#16253D" transform="translate(149,211)"/>
<path d="M0 0 C0.66 0.66 1.32 1.32 2 2 C4.10820797 1.6814823 4.10820797 1.6814823 6 1 C6.12375 1.61875 6.2475 2.2375 6.375 2.875 C6.87197356 5.19120832 6.87197356 5.19120832 9 7 C2.4 7.33 -4.2 7.66 -11 8 C-11 7.67 -11 7.34 -11 7 C-7.7 6.34 -4.4 5.68 -1 5 C-0.67 3.35 -0.34 1.7 0 0 Z " fill="#11223B" transform="translate(117,96)"/>
<path d="M0 0 C1.62600941 0.0870005 3.25089678 0.1951781 4.875 0.3125 C5.77992188 0.37050781 6.68484375 0.42851562 7.6171875 0.48828125 C10 1 10 1 12 4 C9.24075815 5.80411967 8.11027897 6.0127245 4.75 5.625 C3.8425 5.41875 2.935 5.2125 2 5 C2.66 4.67 3.32 4.34 4 4 C3.04134491 1.66924071 3.04134491 1.66924071 0 0 Z " fill="#0E1C35" transform="translate(186,189)"/>
<path d="M0 0 C2.475 0.495 2.475 0.495 5 1 C5.66 3.64 6.32 6.28 7 9 C6.34 9 5.68 9 5 9 C4.67 9.99 4.34 10.98 4 12 C3.32645501 10.56570999 2.66140299 9.12742943 2 7.6875 C1.62875 6.88699219 1.2575 6.08648437 0.875 5.26171875 C0 3 0 3 0 0 Z " fill="#192B42" transform="translate(201,152)"/>
<path d="M0 0 C3.06775511 1.42431487 5.21040099 2.90780074 8 5 C2.39 5 -3.22 5 -9 5 C-6.01193893 3.50596946 -3.10343799 2.20689255 0 1 C0 0.67 0 0.34 0 0 Z " fill="#EAEBEA" transform="translate(122,275)"/>
<path d="M0 0 C0.33 0 0.66 0 1 0 C0.85904936 1.6254308 0.71207913 3.25034051 0.5625 4.875 C0.48128906 5.77992188 0.40007812 6.68484375 0.31640625 7.6171875 C0 10 0 10 -1 12 C-2.32 11.34 -3.64 10.68 -5 10 C-5 8.02 -5 6.04 -5 4 C-4.01 4.33 -3.02 4.66 -2 5 C-1.34 3.35 -0.68 1.7 0 0 Z " fill="#14223A" transform="translate(123,261)"/>
<path d="M0 0 C-0.99 0.495 -0.99 0.495 -2 1 C-1.67 2.65 -1.34 4.3 -1 6 C-3.31 5.67 -5.62 5.34 -8 5 C-8 3.68 -8 2.36 -8 1 C-5.07175348 0.02391783 -3.04386724 -0.08226668 0 0 Z " fill="#102038" transform="translate(49,189)"/>
<path d="M0 0 C0.33 0.66 0.66 1.32 1 2 C0.10333658 4.24310013 -0.89146683 6.44754321 -1.9375 8.625 C-2.50339844 9.81351563 -3.06929687 11.00203125 -3.65234375 12.2265625 C-4.09707031 13.14179688 -4.54179687 14.05703125 -5 15 C-6.32 14.01 -7.64 13.02 -9 12 C-8.360625 11.7525 -7.72125 11.505 -7.0625 11.25 C-4.85776431 10.21437874 -4.85776431 10.21437874 -4.375 8.1875 C-4.189375 7.1046875 -4.189375 7.1046875 -4 6 C-2.30985915 1.15492958 -2.30985915 1.15492958 0 0 Z " fill="#13223B" transform="translate(156,168)"/>
<path d="M0 0 C0.556875 0.28875 1.11375 0.5775 1.6875 0.875 C5.04620758 2.50896585 8.45803828 3.81934609 12 5 C12 6.32 12 7.64 12 9 C7.09198451 7.51272258 3.59508707 4.55364515 0 1 C0 0.67 0 0.34 0 0 Z " fill="#14243C" transform="translate(51,268)"/>
<path d="M0 0 C0.66 0.99 1.32 1.98 2 3 C1.67 3.66 1.34 4.32 1 5 C0.34 5 -0.32 5 -1 5 C-1.4021875 6.3303125 -1.4021875 6.3303125 -1.8125 7.6875 C-2.91710819 10.76877548 -4.22849144 13.26221405 -6 16 C-6.33 15.34 -6.66 14.68 -7 14 C-5.92481882 11.55667274 -4.80191434 9.23245477 -3.5625 6.875 C-3.22412109 6.21628906 -2.88574219 5.55757812 -2.53710938 4.87890625 C-1.69850074 3.24893453 -0.85015189 1.62398091 0 0 Z " fill="#132238" transform="translate(204,221)"/>
<path d="M0 0 C2 3 2 3 2 5 C2.99 4.34 3.98 3.68 5 3 C5.99 3.33 6.98 3.66 8 4 C5.375 5.625 5.375 5.625 2 7 C-1.375 6.1875 -1.375 6.1875 -4 5 C-2.68 3.35 -1.36 1.7 0 0 Z " fill="#E4E5E5" transform="translate(131,150)"/>
<path d="M0 0 C0.86625 0.3403125 0.86625 0.3403125 1.75 0.6875 C0.76 2.9975 -0.23 5.3075 -1.25 7.6875 C-1.70375 7.048125 -2.1575 6.40875 -2.625 5.75 C-4.08921726 3.59047594 -4.08921726 3.59047594 -6.25 2.6875 C-2.80384615 -0.38942308 -2.80384615 -0.38942308 0 0 Z " fill="#0E1E38" transform="translate(175.25,133.3125)"/>
<path d="M0 0 C1.13643966 3.40931897 0.86747764 4.00335456 -0.4375 7.1875 C-0.72496094 7.90292969 -1.01242188 8.61835938 -1.30859375 9.35546875 C-1.53675781 9.89816406 -1.76492187 10.44085938 -2 11 C-0.68 11.33 0.64 11.66 2 12 C0.125 12.625 0.125 12.625 -2 13 C-4 11 -4 11 -4.125 8.375 C-4.08375 7.59125 -4.0425 6.8075 -4 6 C-3.34 6 -2.68 6 -2 6 C-1.34 4.02 -0.68 2.04 0 0 Z " fill="#F5F6F4" transform="translate(66,239)"/>
<path d="M0 0 C0.33 4.62 0.66 9.24 1 14 C0.67 14 0.34 14 0 14 C-0.33 10.7 -0.66 7.4 -1 4 C-2.32 4 -3.64 4 -5 4 C-5 3.34 -5 2.68 -5 2 C-2 0 -2 0 0 0 Z " fill="#F4F5F4" transform="translate(111,224)"/>
<path d="M0 0 C1.18771723 3.42943519 0.80226223 5.37784675 -0.4375 8.75 C-0.86869141 9.94882813 -0.86869141 9.94882813 -1.30859375 11.171875 C-1.53675781 11.77515625 -1.76492187 12.3784375 -2 13 C-4 10 -4 10 -3.625 7.8125 C-3.41875 7.214375 -3.2125 6.61625 -3 6 C-2.34 6 -1.68 6 -1 6 C-1.33 4.68 -1.66 3.36 -2 2 C-1.34 2 -0.68 2 0 2 C0 1.34 0 0.68 0 0 Z " fill="#102038" transform="translate(221,213)"/>
<path d="M0 0 C1.984375 1.14453125 1.984375 1.14453125 4 3 C4.390625 5.69921875 4.390625 5.69921875 4.25 8.6875 C4.21390625 9.68136719 4.1778125 10.67523438 4.140625 11.69921875 C4.09421875 12.45847656 4.0478125 13.21773437 4 14 C3.67 14 3.34 14 3 14 C2.87882813 13.39671875 2.75765625 12.7934375 2.6328125 12.171875 C2.46523437 11.37265625 2.29765625 10.5734375 2.125 9.75 C1.96257812 8.96109375 1.80015625 8.1721875 1.6328125 7.359375 C1.00849925 5.03168856 0.15161458 3.10968048 -1 1 C-0.67 0.67 -0.34 0.34 0 0 Z " fill="#0E1D34" transform="translate(221,182)"/>
<path d="M0 0 C1 3 1 3 -0.25 5.625 C-2 8 -2 8 -5 9 C-5 9.66 -5 10.32 -5 11 C-5.66 10.67 -6.32 10.34 -7 10 C-3.535 5.05 -3.535 5.05 0 0 Z " fill="#18273E" transform="translate(196,237)"/>
<path d="M0 0 C2.0245738 1.93254772 3.42105792 3.63158688 5 6 C4.67 6.99 4.34 7.98 4 9 C3.34 8.01 2.68 7.02 2 6 C1.01 6 0.02 6 -1 6 C-1.625 4.125 -1.625 4.125 -2 2 C-1.34 1.34 -0.68 0.68 0 0 Z " fill="#16263E" transform="translate(42,233)"/>
<path d="M0 0 C-3.36423277 2.96052484 -6.69159287 3.92289822 -11 5 C-6.05136986 -1.43321918 -6.05136986 -1.43321918 0 0 Z " fill="#E8E8E9" transform="translate(126,160)"/>
<path d="M0 0 C0.33 0.66 0.66 1.32 1 2 C0.06553465 4.03144641 -0.93224776 6.03533587 -2 8 C-3.65 8 -5.3 8 -7 8 C-7 7.01 -7 6.02 -7 5 C-6.21625 4.731875 -5.4325 4.46375 -4.625 4.1875 C-1.71885077 3.15185568 -1.71885077 3.15185568 0 0 Z " fill="#12233C" transform="translate(42,147)"/>
<path d="M0 0 C0.66 0 1.32 0 2 0 C2.33 0.99 2.66 1.98 3 3 C1.68 3 0.36 3 -1 3 C-0.67 2.01 -0.34 1.02 0 0 Z M-1 3 C-0.34 4.65 0.32 6.3 1 8 C-0.65 7.67 -2.3 7.34 -4 7 C-4.33 6.01 -4.66 5.02 -5 4 C-3 3 -3 3 -1 3 Z " fill="#21354B" transform="translate(204,146)"/>
<path d="M0 0 C0.66 0 1.32 0 2 0 C2.33 1.98 2.66 3.96 3 6 C2.01 6 1.02 6 0 6 C-0.33 7.32 -0.66 8.64 -1 10 C-1.125 2.25 -1.125 2.25 0 0 Z " fill="#122138" transform="translate(119,109)"/>
<path d="M0 0 C3.34373475 0.55728913 6.03312999 1.35173889 9 3 C6 5 6 5 3.3125 4.625 C2.549375 4.41875 1.78625 4.2125 1 4 C0.67 2.68 0.34 1.36 0 0 Z " fill="#172841" transform="translate(216,52)"/>
<path d="M0 0 C1 4 1 4 0.00390625 6.359375 C-0.47175781 7.14828125 -0.94742188 7.9371875 -1.4375 8.75 C-1.91058594 9.54921875 -2.38367188 10.3484375 -2.87109375 11.171875 C-3.24363281 11.77515625 -3.61617187 12.3784375 -4 13 C-4.66 12.67 -5.32 12.34 -6 12 C-4.02 8.04 -2.04 4.08 0 0 Z " fill="#E1E4E4" transform="translate(218,228)"/>
<path d="M0 0 C0.66 1.32 1.32 2.64 2 4 C1.34 4.66 0.68 5.32 0 6 C-0.66 5.67 -1.32 5.34 -2 5 C-2.33 6.65 -2.66 8.3 -3 10 C-3.66 10 -4.32 10 -5 10 C-3.84414715 6.08788267 -2.64465038 3.1254959 0 0 Z " fill="#112039" transform="translate(34,133)"/>
<path d="M0 0 C2.33333333 2.33333333 4.66666667 4.66666667 7 7 C6.34 8.32 5.68 9.64 5 11 C4.15504811 9.92570402 3.32445142 8.84010798 2.5 7.75 C2.0359375 7.14671875 1.571875 6.5434375 1.09375 5.921875 C0 4 0 4 0 0 Z " fill="#F4F4F3" transform="translate(206,128)"/>
<path d="M0 0 C2.6597889 1.32989445 2.9835728 2.68898191 4.1875 5.375 C4.55230469 6.16648438 4.91710937 6.95796875 5.29296875 7.7734375 C6 10 6 10 5 13 C4.18697675 11.54195831 3.37459869 10.08355685 2.5625 8.625 C2.11003906 7.81289062 1.65757813 7.00078125 1.19140625 6.1640625 C0.4349464 4.79003378 -0.29854631 3.40290739 -1 2 C-0.67 1.34 -0.34 0.68 0 0 Z " fill="#F4F5F4" transform="translate(23,230)"/>
<path d="M0 0 C0.99 0 1.98 0 3 0 C1.77472971 4.05281712 0.30119506 7.44360764 -2 11 C-3 9 -3 9 -2.125 6.0625 C-1.75375 5.051875 -1.3825 4.04125 -1 3 C-0.67 2.01 -0.34 1.02 0 0 Z " fill="#F5F5F3" transform="translate(199,225)"/>
<path d="M0 0 C0.33 0.66 0.66 1.32 1 2 C-3.30769231 5.93846154 -3.30769231 5.93846154 -6.8125 6.25 C-7.534375 6.1675 -8.25625 6.085 -9 6 C-6.45543849 3.03134491 -3.51005335 1.6380249 0 0 Z " fill="#0F1E36" transform="translate(166,267)"/>
<path d="M0 0 C0 3 0 3 -1.53125 4.60546875 C-2.1809375 5.12753906 -2.830625 5.64960938 -3.5 6.1875 C-4.1496875 6.71730469 -4.799375 7.24710937 -5.46875 7.79296875 C-5.9740625 8.19128906 -6.479375 8.58960938 -7 9 C-7.33 8.01 -7.66 7.02 -8 6 C-6.68 5.67 -5.36 5.34 -4 5 C-4 4.34 -4 3.68 -4 3 C-2 1.375 -2 1.375 0 0 Z " fill="#0C1E37" transform="translate(199,257)"/>
<path d="M0 0 C0.33 1.32 0.66 2.64 1 4 C0.4225 4.12375 -0.155 4.2475 -0.75 4.375 C-3.02335767 5.00648824 -4.9253529 5.88858191 -7 7 C-5.54744301 3.17053157 -3.57104439 1.87949705 0 0 Z " fill="#F4F3F2" transform="translate(71,118)"/>
<path d="M0 0 C0.99 0.99 1.98 1.98 3 3 C1.35 3.66 -0.3 4.32 -2 5 C-2.66 4.34 -3.32 3.68 -4 3 C-3 1 -3 1 0 0 Z " fill="#192A42" transform="translate(195,190)"/>
<path d="M0 0 C2.95409701 1.37154504 5.44008376 2.98863724 8 5 C6.02 5 4.04 5 2 5 C2 4.34 2 3.68 2 3 C0.35 3 -1.3 3 -3 3 C-2.01 2.01 -1.02 1.02 0 0 Z " fill="#DDDEDC" transform="translate(122,275)"/>
<path d="M0 0 C0.66 0.33 1.32 0.66 2 1 C1.34 1.66 0.68 2.32 0 3 C0 3.99 0 4.98 0 6 C-0.99 6.33 -1.98 6.66 -3 7 C-3.33 5.68 -3.66 4.36 -4 3 C-2.68 2.01 -1.36 1.02 0 0 Z " fill="#14253D" transform="translate(172,263)"/>
<path d="M0 0 C2.475 0.495 2.475 0.495 5 1 C5 3.31 5 5.62 5 8 C2.20127563 5.47211993 0.54226981 3.79588866 0 0 Z " fill="#15243B" transform="translate(31,243)"/>
<path d="M0 0 C2.475 0.99 2.475 0.99 5 2 C5 2.66 5 3.32 5 4 C4.34 4 3.68 4 3 4 C2.67 4.99 2.34 5.98 2 7 C1.34 4.69 0.68 2.38 0 0 Z " fill="#12213A" transform="translate(203,157)"/>
<path d="M0 0 C0.33 0.66 0.66 1.32 1 2 C2.98 1.67 4.96 1.34 7 1 C4.06171403 3.50298434 1.82097239 4.46930939 -2 5 C-1.34 3.35 -0.68 1.7 0 0 Z " fill="#F6F6F3" transform="translate(78,24)"/>
</svg>
